<?xml version="1.0" encoding="UTF-8" standalone="no"?>
<!-- Generator: Adobe Illustrator 10.0.3, SVG Export Plug-In . SVG Version: 3.0.0 Build 77)  -->

<svg
   xmlns:dc="http://purl.org/dc/elements/1.1/"
   xmlns:cc="http://creativecommons.org/ns#"
   xmlns:rdf="http://www.w3.org/1999/02/22-rdf-syntax-ns#"
   xmlns:svg="http://www.w3.org/2000/svg"
   xmlns="http://www.w3.org/2000/svg"
   xmlns:xlink="http://www.w3.org/1999/xlink"
   xmlns:sodipodi="http://sodipodi.sourceforge.net/DTD/sodipodi-0.dtd"
   xmlns:inkscape="http://www.inkscape.org/namespaces/inkscape"
   width="270"
   height="270"
   viewBox="0 0 270.00001 270"
   style="display:inline;overflow:visible"
   xml:space="preserve"
   id="svg2816"
   version="1.1"
   inkscape:version="0.48.1 r9760"
   sodipodi:docname="tlmgr.svg"><metadata
   id="metadata2851"><rdf:RDF><cc:Work
       rdf:about=""><dc:format>image/svg+xml</dc:format><dc:type
         rdf:resource="http://purl.org/dc/dcmitype/StillImage" /><dc:title /></cc:Work></rdf:RDF></metadata><defs
   id="defs2849"><linearGradient
     id="linearGradient5749"><stop
       id="stop5751"
       offset="0"
       style="stop-color:#c8bb2c;stop-opacity:1" /><stop
       id="stop5753"
       offset="0.42938474"
       style="stop-color:#c8ab37;stop-opacity:1" /><stop
       id="stop5755"
       offset="1"
       style="stop-color:#786721;stop-opacity:1" /></linearGradient><linearGradient
     id="linearGradient5739"><stop
       style="stop-color:#33b850;stop-opacity:1;"
       offset="0"
       id="stop5741" /><stop
       id="stop5747"
       offset="0.5"
       style="stop-color:#c8ab37;stop-opacity:0.49803922;" /><stop
       style="stop-color:#c8ab37;stop-opacity:0"
       offset="1"
       id="stop5743" /></linearGradient><linearGradient
     id="linearGradient4223"><stop
       id="stop3656"
       offset="0"
       style="stop-color:#6a5c22;stop-opacity:1;" /><stop
       id="stop3654"
       offset="0.70769727"
       style="stop-color:#c8ab37;stop-opacity:1" /><stop
       style="stop-color:#dac15a;stop-opacity:1;"
       offset="1"
       id="stop4227" /></linearGradient><linearGradient
     inkscape:collect="always"
     id="linearGradient4215"><stop
       style="stop-color:#786721;stop-opacity:1;"
       offset="0"
       id="stop4217" /><stop
       style="stop-color:#786721;stop-opacity:0;"
       offset="1"
       id="stop4219" /></linearGradient><linearGradient
     id="linearGradient3682"><stop
       style="stop-color:#f1e671;stop-opacity:1;"
       offset="0"
       id="stop4231" /><stop
       style="stop-color:#c8ab37;stop-opacity:1"
       offset="0.66298664"
       id="stop4213" /><stop
       style="stop-color:#786721;stop-opacity:1"
       offset="1"
       id="stop3686" /></linearGradient><inkscape:perspective
     sodipodi:type="inkscape:persp3d"
     inkscape:vp_x="0 : 114.031 : 1"
     inkscape:vp_y="0 : 1000 : 0"
     inkscape:vp_z="248.47099 : 114.031 : 1"
     inkscape:persp3d-origin="124.2355 : 76.020665 : 1"
     id="perspective2853" /><inkscape:perspective
     id="perspective2856"
     inkscape:persp3d-origin="0.5 : 0.33333333 : 1"
     inkscape:vp_z="1 : 0.5 : 1"
     inkscape:vp_y="0 : 1000 : 0"
     inkscape:vp_x="0 : 0.5 : 1"
     sodipodi:type="inkscape:persp3d" /><inkscape:perspective
     id="perspective2997"
     inkscape:persp3d-origin="0.5 : 0.33333333 : 1"
     inkscape:vp_z="1 : 0.5 : 1"
     inkscape:vp_y="0 : 1000 : 0"
     inkscape:vp_x="0 : 0.5 : 1"
     sodipodi:type="inkscape:persp3d" /><radialGradient
     inkscape:collect="always"
     xlink:href="#linearGradient3682"
     id="radialGradient3688"
     cx="59.357792"
     cy="136.64711"
     fx="59.357792"
     fy="136.64711"
     r="113.49914"
     gradientTransform="matrix(1.3152342,0.04522208,-0.04703422,1.3679372,-5.8498181,-59.579928)"
     gradientUnits="userSpaceOnUse" /><linearGradient
     inkscape:collect="always"
     xlink:href="#linearGradient4215"
     id="linearGradient4221"
     x1="180.77203"
     y1="71.763046"
     x2="199.85242"
     y2="97.362198"
     gradientUnits="userSpaceOnUse"
     gradientTransform="matrix(1.0809402,0,0,1.0204074,-3.223564,-12.087424)" /><radialGradient
     inkscape:collect="always"
     xlink:href="#linearGradient4223"
     id="radialGradient3652"
     cx="44.960342"
     cy="223.34352"
     fx="44.960342"
     fy="223.34352"
     r="55.639721"
     gradientTransform="matrix(1.4022312,0.35120986,-0.153588,0.61321069,30.002569,-17.284415)"
     gradientUnits="userSpaceOnUse" /><inkscape:perspective
     id="perspective3667"
     inkscape:persp3d-origin="0.5 : 0.33333333 : 1"
     inkscape:vp_z="1 : 0.5 : 1"
     inkscape:vp_y="0 : 1000 : 0"
     inkscape:vp_x="0 : 0.5 : 1"
     sodipodi:type="inkscape:persp3d" /><linearGradient
     id="linearGradient3682-0"><stop
       style="stop-color:#f1e671;stop-opacity:1;"
       offset="0"
       id="stop4231-6" /><stop
       style="stop-color:#c8ab37;stop-opacity:1"
       offset="0.66298664"
       id="stop4213-1" /><stop
       style="stop-color:#786721;stop-opacity:1"
       offset="1"
       id="stop3686-5" /></linearGradient><linearGradient
     id="linearGradient4223-6"><stop
       id="stop3656-9"
       offset="0"
       style="stop-color:#6a5c22;stop-opacity:1;" /><stop
       id="stop3654-3"
       offset="0.70769727"
       style="stop-color:#c8ab37;stop-opacity:1" /><stop
       style="stop-color:#dac15a;stop-opacity:1;"
       offset="1"
       id="stop4227-7" /></linearGradient><linearGradient
     inkscape:collect="always"
     xlink:href="#linearGradient5749"
     id="linearGradient5745"
     x1="106.28487"
     y1="31.718859"
     x2="125.58268"
     y2="20.102272"
     gradientUnits="userSpaceOnUse"
     gradientTransform="matrix(0.98036388,-0.19719702,0.19719702,0.98036388,-4.0195208,24.162963)" /></defs><sodipodi:namedview
   pagecolor="#ffffff"
   bordercolor="#666666"
   borderopacity="1"
   objecttolerance="10"
   gridtolerance="10"
   guidetolerance="10"
   inkscape:pageopacity="0"
   inkscape:pageshadow="2"
   inkscape:window-width="1096"
   inkscape:window-height="908"
   id="namedview2847"
   showgrid="false"
   inkscape:zoom="2.6219511"
   inkscape:cx="133.1416"
   inkscape:cy="126.24304"
   inkscape:window-x="474"
   inkscape:window-y="50"
   inkscape:window-maximized="0"
   inkscape:current-layer="g2910"
   inkscape:object-nodes="true"
   inkscape:snap-global="false" />
	
<g
   inkscape:groupmode="layer"
   id="layer1"
   inkscape:label="red"
   transform="translate(0,41.938005)"><path
     sodipodi:type="arc"
     style="fill:#b3faec;fill-opacity:1;stroke:none"
     id="path3763"
     sodipodi:cx="137.88635"
     sodipodi:cy="123.53212"
     sodipodi:rx="101.42695"
     sodipodi:ry="101.42695"
     d="m 239.3133,123.53212 c 0,56.01656 -45.41039,101.42695 -101.42695,101.42695 -56.016554,0 -101.426946,-45.41039 -101.426946,-101.42695 0,-56.016557 45.410392,-101.426949 101.426946,-101.426949 56.01656,0 101.42695,45.410392 101.42695,101.426949 z"
     transform="matrix(0.99808795,0,0,0.99808795,18.430079,-34.438385)" /></g><g
   style="display:inline"
   inkscape:label="New"
   id="g2910"
   inkscape:groupmode="layer"
   transform="translate(0,41.938005)"><path
     id="path2952"
     style="fill:#00612b;fill-opacity:1"
     d="m 200.81661,54.986631 c -3.64879,2.893622 -10.27939,-2.561778 -14.8154,-12.182166 -4.53602,-9.620387 -5.25062,-19.762511 -1.60288,-22.654025 3.64936,-2.890703 10.2794,2.561778 14.81703,12.182977 4.53497,9.622496 5.24956,19.764615 1.60125,22.653214 z"
     inkscape:connector-curvature="0" /><path
     id="path2950"
     style="fill:#00612b;fill-opacity:1"
     d="m 153.95812,24.495879 c -1.18398,8.821918 -6.30211,15.415312 -11.43224,14.7268 -5.1285,-0.688295 -8.32837,-8.400188 -7.14467,-17.219999 1.1837,-8.81981 6.30346,-15.412986 11.43196,-14.724692 5.13012,0.688514 8.32865,8.398081 7.14495,17.217891 z"
     inkscape:connector-curvature="0" /><path
     id="path2920"
     style="fill:url(#linearGradient5745);fill-opacity:1"
     d="m 113.89971,44.482838 c -9.42833,-5.583098 -10.97803,-16.545947 -8.95458,-25.701693 10.78651,-1.879166 15.62267,0.417141 22.40109,4.811931 4.62503,5.334319 8.89665,21.164927 8.89665,21.164927 0,0 -12.91818,5.304769 -22.34316,-0.275165 z"
     sodipodi:nodetypes="ccccc"
     inkscape:connector-curvature="0" /><g
     id="g2914"
     transform="translate(9.9926697,-9.9615949)" /><path
     id="path2932"
     style="fill:#ffffff;fill-opacity:1"
     d="m 129.71368,59.616405 c 0,11.815 -9.941,21.394 -22.20501,21.394 -12.265,0 -22.206,-9.578 -22.206,-21.394 0,-11.816 9.941,-21.393 22.206,-21.393 12.26301,10e-4 22.20501,9.578 22.20501,21.393 z" /><path
     id="path2936"
     d="m 119.60176,60.722511 c 0,6.584565 -5.33607,11.922075 -11.92207,11.922075 -6.58457,0 -11.920639,-5.33751 -11.920639,-11.922075 0,-6.583123 5.336069,-11.919189 11.920639,-11.919189 6.586,0 11.92207,5.336066 11.92207,11.919189 z" /><path
     id="path2938"
     style="fill:url(#radialGradient3688);fill-opacity:1"
     d="m 20.248693,126.38723 c -4.875,13.539 16.851977,38.11817 32.067977,43.40217 -1.406,13.13 18.633,35.877 28.653,41.022 0.271,-6.771 1.083,-12.186 4.062,-16.519 21.935,15.436 36.82901,17.061 53.66101,21.721 -10.862,-3.007 -10.008,-16.379 -15.479,-23.616 23.614,0.197 35.204,12.728 69.596,14.623 l -12.998,-17.331 c 14.352,3.521 34.933,2.708 43.057,4.874 -4.333,-13.811 -3.521,-41.433 -6.77,-55.784 l 18.414,3.52 c -9.749,-17.602 1.103,-75.441995 -43.87,-95.591995 -2.883,-2.148 -12.252,-5.109 -23.536,-6.479 1.331,-3.271 5.393,-2.458 7.289,-5.707 -22.206,-13.54 -53.6787,5.024694 -62.67916,27.983771 C 90.500287,59.627637 62.753824,68.608484 49.688055,76.479943 24.650591,75.107481 -8.7789229,95.442386 20.248693,126.38723 z"
     sodipodi:nodetypes="ccccscccccccccccc" /><path
     id="path2942"
     style="fill:#c8ab37"
     d="m 209.64295,79.922477 c -10.45927,8.654008 -27.04449,11.508862 -32.31327,5.958928 -5.729,-7.866 -0.576,-22.424 12.321,-31.361 11.012,-7.632 23.739,-8.173 33.089,-2.856 0,0 -0.56773,18.814072 -13.09673,28.258072 z"
     sodipodi:nodetypes="ccccc"
     inkscape:connector-curvature="0" /><path
     id="path2944"
     style="fill:#ffffff;fill-opacity:1"
     d="m 161.14537,72.186106 c 0,14.031212 -12.05212,25.405391 -26.91875,25.405391 -14.86662,0 -26.91764,-11.374179 -26.91764,-25.405391 0,-14.030094 12.05102,-25.405393 26.91764,-25.405393 14.86663,0 26.91875,11.374182 26.91875,25.405393 z"
     inkscape:connector-curvature="0" /><path
     id="path2948"
     d="m 152.13337,81.364785 c 0,7.213238 -5.84788,13.062625 -13.06111,13.062625 -7.21172,0 -13.0596,-5.849387 -13.0596,-13.062625 0,-7.210206 5.84788,-13.061111 13.0596,-13.061111 7.21172,0 13.06111,5.847874 13.06111,13.061111 z"
     inkscape:connector-curvature="0" /><path
     style="fill:url(#linearGradient4221);fill-opacity:1;stroke:none"
     d="m 176.24831,85.215715 c 3.96315,-12.290584 9.03724,-17.823025 17.89563,-24.272687 8.8584,-6.449663 21.66306,-9.307376 28.22124,-9.202043 0.9601,6.584307 -4.34708,25.269778 -16.81208,31.477156 -12.465,6.207378 -22.71034,7.847933 -29.30479,1.997574 z"
     id="path2905"
     sodipodi:nodetypes="csczc"
     inkscape:connector-curvature="0" /><path
     style="fill:#786721;fill-opacity:1;stroke:none"
     d="m 48.005001,111.71852 c -2.949904,3.53909 -16.95113,7.33888 -20.126512,4.65943 -2.992792,-2.5254 -7.802482,-14.27033 -5.418417,-18.576378 2.384068,-4.30606 10.357411,-5.39957 17.411449,-1.5565 7.054037,3.843048 11.083384,11.934348 8.13348,15.473448 z"
     id="path2907"
     sodipodi:nodetypes="czzsz" /><path
     style="fill:url(#radialGradient3652);fill-opacity:1;stroke:none;display:inline;overflow:visible"
     d="m 120.72419,134.27017 c 4.7296,4.0489 -17.95314,35.05629 -26.638897,26.20018 -22.634334,14.42744 -49.517528,17.54845 -70.511913,-17.46598 -3.196841,-2.19714 -2.880626,-8.47284 -6.330991,-11.78012 -4.712545,-5.28371 -5.115009,-9.41834 -5.948895,-17.41712 3.637076,7.79459 9.056496,10.69899 14.761583,14.12161 31.651372,43.90812 56.905665,23.7243 64.676686,20.10385 16.608687,12.57492 27.313777,-16.37878 29.992427,-13.76242 z"
     id="path2986"
     sodipodi:nodetypes="cccccccc" /></g></svg>