#define drag_vert_width 7
#define drag_vert_height 17
#define drag_vert_x_hot 3
#define drag_vert_y_hot 8
static unsigned char drag_vert_bits[] = {
    0x00, 0x08, 0x1c, 0x2a, 0x08, 0x08, 0x08, 0x08, 0x08, 0x08, 0x08, 0x08,
    0x08, 0x2a, 0x1c, 0x08, 0x00};
