#define drag_omni_width 17
#define drag_omni_height 17
#define drag_omni_x_hot 8
#define drag_omni_y_hot 8
static unsigned char drag_omni_bits[] = {
    0x00, 0x00, 0x00, 0x00, 0x01, 0x00, 0x80, 0x03, 0x00, 0x40, 0x05, 0x00,
    0x00, 0x01, 0x00, 0x00, 0x01, 0x00, 0x08, 0x21, 0x00, 0x04, 0x41, 0x00,
    0xfe, 0xff, 0x00, 0x04, 0x41, 0x00, 0x08, 0x21, 0x00, 0x00, 0x01, 0x00,
    0x00, 0x01, 0x00, 0x40, 0x05, 0x00, 0x80, 0x03, 0x00, 0x00, 0x01, 0x00,
    0x00, 0x00, 0x00};
