#define drag_vert_mask_width 7
#define drag_vert_mask_height 17
#define drag_vert_mask_x_hot 3
#define drag_vert_mask_y_hot 8
static unsigned char drag_vert_mask_bits[] = {
    0x08, 0x1c, 0x3e, 0x7f, 0x1c, 0x1c, 0x1c, 0x1c, 0x1c, 0x1c, 0x1c, 0x1c,
    0x1c, 0x7f, 0x3e, 0x1c, 0x08};
