#define fist_width 16
#define fist_height 16
static unsigned char fist_bits[] = {
   0xff, 0xff, 0xff, 0xff, 0xff, 0xff, 0xff, 0xff, 0xff, 0xff, 0x4f, 0xf2,
   0x0f, 0xd0, 0x0f, 0xc0, 0x0b, 0xc0, 0x03, 0xc0, 0x03, 0xc0, 0x03, 0xe0,
   0x07, 0xe0, 0x0f, 0xf0, 0x1f, 0xf0, 0x1f, 0xf0};
