#define fist_mask_width 16
#define fist_mask_height 16
static unsigned char fist_mask_bits[] = {
   0x00, 0x00, 0x00, 0x00, 0x00, 0x00, 0x00, 0x00, 0xb0, 0x0d, 0xf8, 0x3f,
   0xf8, 0x7f, 0xfc, 0x7f, 0xfe, 0x7f, 0xfe, 0x7f, 0xfe, 0x7f, 0xfe, 0x3f,
   0xfc, 0x3f, 0xf8, 0x1f, 0xf0, 0x1f, 0xf0, 0x1f};
