#define hand_mask_width 16
#define hand_mask_height 16
static unsigned char hand_mask_bits[] = {
   0x00, 0x00, 0x80, 0x01, 0xd8, 0x0f, 0xfc, 0x1f, 0xfc, 0x5f, 0xf8, 0xff,
   0xf8, 0xff, 0xf6, 0xff, 0xff, 0xff, 0xff, 0x7f, 0xfe, 0x7f, 0xfc, 0x7f,
   0xfc, 0x3f, 0xf8, 0x3f, 0xf0, 0x1f, 0xe0, 0x1f};
