#define hand_width 16
#define hand_height 16
static unsigned char hand_bits[] = {
   0xff, 0xff, 0xff, 0xff, 0x7f, 0xfe, 0x67, 0xf2, 0x67, 0xf2, 0x4f, 0xb2,
   0x4f, 0x92, 0x1f, 0x90, 0x19, 0x80, 0x11, 0xc0, 0x03, 0xc0, 0x07, 0xc0,
   0x07, 0xe0, 0x0f, 0xe0, 0x1f, 0xf0, 0x3f, 0xf0};
