#define time16_mask_width 16
#define time16_mask_height 16
static unsigned char time16_mask_bits[] = {
    0xff, 0xff, 0xff, 0xff, 0xfe, 0x7f, 0xfe, 0x7f, 0xfe, 0x7f, 0xf6, 0x6f,
    0xe6, 0x67, 0xc6, 0x63, 0xc6, 0x63, 0xe6, 0x67, 0xf6, 0x6f, 0xfe, 0x7f,
    0xfe, 0x7f, 0xfe, 0x7f, 0xff, 0xff, 0xff, 0xff};
