/* XPM */
static const char * xdvi32x32_xpm[] = {
"32 32 20 1",
" 	c None",
".	c #767A87",
"X	c #030203",
"o	c #626162",
"O	c #2F1C0F",
"+	c #160807",
"@	c #4D310F",
"#	c #FDCB4F",
"$	c #FEE75B",
"%	c #EFB647",
"&	c #94681D",
"*	c #775117",
"=	c #DCA234",
"-	c #FEFEFE",
";	c #B0A799",
":	c #937B54",
">	c #B4852E",
",	c #A48B69",
"<	c #D8D3CA",
"1	c #D8A847",
"  .XXXXXXX.               .XXXo ",
"   OXXXXXX+  @@@         .OXXO  ",
"    +XXXXXX.@###O  X X   oXXX   ",
"     XXXXXXX.#+##@O$@%O&.XXX.   ",
"     .XXXXXXX%&+#&##O#O#*O+@    ",
"      OXXXXXX&@&###O#O##O&#++ & ",
"       XXXXXXX@@@##%###O####+&=@",
"        XXXXX@--;@:@=#O##&O#+@%>",
"        XXXX@--;:&--@=##&+##+#X ",
"        **:,@-XX;----@#*X##X&#O*",
"    ,&######=@+&--<<-@##%#X&#O& ",
"   ,##########=@--++@=######+#&O",
"  o&#>##>######=@-OO=####+++&&#&",
"  #@&#>###@####%=@@==#######$++@",
"  #*X&#@>@#################++#$@",
"  ##X@@@###############%++###+% ",
"   #@##@>@##############*+++##O ",
"   *@#############+###O####@O@* ",
"   ##+###########+#####+++###O&+",
"   ###++#######++###+&###++###=&",
"    &###+++++++#####%+++##++++&@",
"     ,#############O%%##+#####& ",
"      >*&#%1#%#%#==1@%%%%+#&+%#O",
"       .+X&%=>=*= O@@+%+##+#+@& ",
"       OXX+.,= %   XXX@X&#+##+= ",
"      oXXX.         XXXX>#+&#+=*",
"     .X+X.          o+XXO+X;@&  ",
"     XXXo            OXXXXXX    ",
"    XXXO              XXXX+Xo   ",
"   oXXX               o+XXXXX   ",
"  .XXX.                XX+XXX+  ",
" .XXXo                  XXXXXXo "};
