/* XPM */
static const char * xdvi16x16_xpm[] = {
"16 16 81 1",
" 	c None",
".	c #616060",
"+	c #161311",
"@	c #7B7A7B",
"#	c #0F0C0A",
"$	c #6F7178",
"%	c #FFD549",
"&	c #D39A2D",
"*	c #C4BBB6",
"=	c #000006",
"-	c #6B6D72",
";	c #7C5A20",
">	c #8B621A",
",	c #D79C2E",
"'	c #FFCC41",
")	c #DCD0BF",
"!	c #D8D1C9",
"~	c #FFFFFF",
"{	c #FCB529",
"]	c #DA9E2E",
"^	c #CE9834",
"/	c #8C5B0B",
"(	c #96702C",
"_	c #626874",
":	c #D3B276",
"<	c #F4B73C",
"[	c #FDBF42",
"}	c #8B6727",
"|	c #C5A469",
"1	c #AD915D",
"2	c #D19F3C",
"3	c #D7A542",
"4	c #FFC640",
"5	c #7E4C00",
"6	c #CBA153",
"7	c #ECB03B",
"8	c #F4BB48",
"9	c #FFC54A",
"0	c #785A2B",
"a	c #CCA25E",
"b	c #A8874E",
"c	c #FABD41",
"d	c #CEA55A",
"e	c #845E1D",
"f	c #D8A23D",
"g	c #F5BB48",
"h	c #DBA339",
"i	c #DEA53A",
"j	c #EBB345",
"k	c #856226",
"l	c #A28352",
"m	c #F3B63C",
"n	c #F9BF4B",
"o	c #EAB345",
"p	c #382205",
"q	c #785820",
"r	c #DEA539",
"s	c #987C51",
"t	c #8C6625",
"u	c #F9BA3D",
"v	c #9B8769",
"w	c #FFD049",
"x	c #8E6826",
"y	c #BA8A30",
"z	c #D9A139",
"A	c #A77C2D",
"B	c #F8BB41",
"C	c #FDC24C",
"D	c #FFC646",
"E	c #FFBF40",
"F	c #6E5128",
"G	c #FEC24C",
"H	c #707279",
"I	c #5E6678",
"J	c #596276",
"K	c #482E09",
"L	c #AD894C",
"M	c #777777",
"N	c #090503",
"O	c #04050A",
"P	c #636976",
".+++.        .+.",
" @###$%%  & *=- ",
"  @##=;>,';&=;) ",
"   @#=!~{;]%^%/(",
"    _#!=~~:<;[} ",
"  |12345~=678;90",
" a%b%%ccdefghi;j",
" %k%lmccggg8;gn;",
" opqrsccctc;8;uv",
" wxyccccxccz;n;j",
"  wyAxAyccBC8;n;",
"   '''wDEEFp%G;j",
"  H=I   hJ==K%;L",
" MNM      @#O=P ",
".NM        @###.",
"+.          .+++"};
