/* XPM */
static const char * xdvi48x48_xpm[] = {
"48 48 35 1",
" 	c None",
".	c #848484",
"+	c #080808",
"@	c #343434",
"#	c #808080",
"$	c #3C3B3C",
"%	c #7D7D7D",
"&	c #505050",
"*	c #946924",
"=	c #FDC54E",
"-	c #523611",
";	c #2F261C",
">	c #6D4E1E",
",	c #665641",
"'	c #EBB345",
")	c #9F896C",
"!	c #B78833",
"~	c #626262",
"{	c #A9A5A2",
"]	c #FEFEFE",
"^	c #DAD6D1",
"/	c #D7A03A",
"(	c #C7BFB5",
"_	c #493415",
":	c #64471A",
"<	c #E9B345",
"[	c #8D7757",
"}	c #696159",
"|	c #EFEEEE",
"1	c #8F7C5A",
"2	c #65513A",
"3	c #9C9C9B",
"4	c #D59E39",
"5	c #444444",
"6	c #4C4C4C",
".+++++++++++@                             @++@  ",
" #++++++++++++                           +++$   ",
"  $+++++++++++@                         @+++    ",
"   @+++++++++++%     +++++  ++   ++    &+++     ",
"    ++++++++++++    +*===+ +==+ +==+ -.+++.     ",
"     +++++++++++@   +==;>=+===+ +==++++++,      ",
"     #+++++++++++&   +'>;==+===+==+=+==+=+ ++   ",
"      @+++++++++++    +'*>=+==+==+==+=+'+++''+  ",
"       ++++++++++++   )+========+==+===-''+''+  ",
"        +++++++++++@  ----!========+===-=+''+'+ ",
"        @+++++++++++~-{]]^-=/========!-=++++='+ ",
"         +++++++++++-{]]]]-)---!======!+!''*++  ",
"          ++++++++++-]);](-(]]^-!====!+=====+-  ",
"           +++++;-->-];;)-^]]]]^-===/+==*-*=+=+ ",
"          *-_:!/===<-^(--^]]]]]]-===+=!>++/=+'+ ",
"        **==========!---[]]]^^](-=====+++!=+''+ ",
"       *==============/*}]]^;;|-/===/+-!==+!++* ",
"      *==**/===========/-^]^;;}-=========+!'''- ",
"     *+=*===============!-^]^^-======++++!=+'='-",
"     ='+===*/============/----==============+++ ",
"     !*--=*====+*/=====================++++===+}",
"     ''>+>===++/==========================++===+",
"     '''++++>=======================++=====+=++ ",
"      '*-*+''++======================+++====+   ",
"      +'*==++''+!======================+++===+  ",
"      =;+====+!============-==============++=++ ",
"      /==+================-+=====+++========+=> ",
"       !==+==============-+========+++=======++}",
"        ===+-/==========-+======+====+++======+ ",
"        !===>++*======-+-=======-+======++++=+  ",
"         !=====++++++++=====-=====+++======++=  ",
"           !=================+======++======++- ",
"             1#/============+-====+==+++======+ ",
"             .+++/=/====++++++++==+====+==-==+2 ",
"            .+++@>=>=-=-  @++++'-==+===+===-=+  ",
"            @+++3[>->4-    @++++'-=+===+===-=+  ",
"           ~+++.            +++++===++==+===-=+ ",
"          .+++#              ++++++==++++===-+  ",
"          +++5               #+++++++++++++++   ",
"         @+++.                @++++++++++-      ",
"        6+++                   +++++++++++&     ",
"       .+++#                    +++++++++++.    ",
"       +++#                     @+++++++++++    ",
"      +++5                       +++++++++++@   ",
"     @+++.                        +++++++++++~  ",
"    6+++.                          +++++++++++# ",
"   #+++#                           +++++++++++& ",
"                                    +++++++++++."};
