<?xml version="1.0" encoding="UTF-8" standalone="no"?>
<!-- Created with Inkscape (http://www.inkscape.org/) -->

<svg
   xmlns:dc="http://purl.org/dc/elements/1.1/"
   xmlns:cc="http://creativecommons.org/ns#"
   xmlns:rdf="http://www.w3.org/1999/02/22-rdf-syntax-ns#"
   xmlns:svg="http://www.w3.org/2000/svg"
   xmlns="http://www.w3.org/2000/svg"
   xmlns:sodipodi="http://sodipodi.sourceforge.net/DTD/sodipodi-0.dtd"
   xmlns:inkscape="http://www.inkscape.org/namespaces/inkscape"
   id="svg3004"
   version="1.1"
   inkscape:version="0.48.0 r9654"
   width="320"
   height="320"
   xml:space="preserve"
   sodipodi:docname="grid_square.svg"><metadata
     id="metadata3010"><rdf:RDF><cc:Work
         rdf:about=""><dc:format>image/svg+xml</dc:format><dc:type
           rdf:resource="http://purl.org/dc/dcmitype/StillImage" /><dc:title></dc:title></cc:Work></rdf:RDF></metadata><defs
     id="defs3008" /><sodipodi:namedview
     pagecolor="#ffffff"
     bordercolor="#666666"
     borderopacity="1"
     objecttolerance="10"
     gridtolerance="10"
     guidetolerance="10"
     inkscape:pageopacity="0"
     inkscape:pageshadow="2"
     inkscape:window-width="1254"
     inkscape:window-height="954"
     id="namedview3006"
     showgrid="false"
     inkscape:zoom="2.334375"
     inkscape:cx="165.30692"
     inkscape:cy="160"
     inkscape:window-x="266"
     inkscape:window-y="30"
     inkscape:window-maximized="0"
     inkscape:current-layer="g3012" /><g
     id="g3012"
     inkscape:groupmode="layer"
     inkscape:label="ink_ext_XXXXXX"
     transform="matrix(1.25,0,0,-1.25,0,320)"><path
       inkscape:connector-curvature="0"
       id="path3016"
       style="fill:#000000;fill-opacity:1;fill-rule:nonzero;stroke:none"
       d="M 0,0 16,0 16,16 0,16 0,0 z" /><path
       style="fill:#100000;fill-opacity:1;fill-rule:nonzero;stroke:none"
       d="M 20 300 L 20 320 L 40 320 L 60 320 L 60 300 L 40 300 L 20 300 z "
       transform="matrix(0.8,0,0,-0.8,0,256)"
       id="path3018" /><path
       style="fill:#300000;fill-opacity:1;fill-rule:nonzero;stroke:none"
       d="M 60 300 L 60 320 L 80 320 L 100 320 L 100 300 L 80 300 L 60 300 z "
       transform="matrix(0.8,0,0,-0.8,0,256)"
       id="path3022" /><path
       style="fill:#500000;fill-opacity:1;fill-rule:nonzero;stroke:none"
       d="M 100 300 L 100 320 L 120 320 L 140 320 L 140 300 L 120 300 L 100 300 z "
       transform="matrix(0.8,0,0,-0.8,0,256)"
       id="path3026" /><path
       style="fill:#700000;fill-opacity:1;fill-rule:nonzero;stroke:none"
       d="M 140 300 L 140 320 L 160 320 L 180 320 L 180 300 L 160 300 L 140 300 z "
       transform="matrix(0.8,0,0,-0.8,0,256)"
       id="path3030" /><path
       style="fill:#8f0000;fill-opacity:1;fill-rule:nonzero;stroke:none"
       d="M 180 300 L 180 320 L 200 320 L 220 320 L 220 300 L 200 300 L 180 300 z "
       transform="matrix(0.8,0,0,-0.8,0,256)"
       id="path3034" /><path
       style="fill:#536c5d;fill-opacity:1;fill-rule:nonzero;stroke:none"
       d="M 220 300 L 220 320 L 240 320 L 260 320 L 260 300 L 240 300 L 220 300 z "
       transform="matrix(0.8,0,0,-0.8,0,256)"
       id="path3038" /><path
       style="fill:#800000;fill-opacity:1;fill-rule:nonzero;stroke:none"
       d="M 260 300 L 260 320 L 280 320 L 300 320 L 300 300 L 280 300 L 260 300 z "
       transform="matrix(0.8,0,0,-0.8,0,256)"
       id="path3042" /><path
       inkscape:connector-curvature="0"
       id="path3046"
       style="fill:#1c2224;fill-opacity:1;fill-rule:nonzero;stroke:none"
       d="m 240,0 16,0 0,16 -16,0 0,-16 z" /><path
       inkscape:connector-curvature="0"
       id="path3048"
       style="fill:#ff0000;fill-opacity:1;fill-rule:nonzero;stroke:none"
       d="m 256,0 0,0 0,16 0,0 0,-16 z" /><path
       style="fill:#001000;fill-opacity:1;fill-rule:nonzero;stroke:none"
       d="M 0 260 L 0 280 L 0 300 L 20 300 L 20 280 L 20 260 L 0 260 z "
       transform="matrix(0.8,0,0,-0.8,0,256)"
       id="path3050" /><path
       style="fill:#101000;fill-opacity:1;fill-rule:nonzero;stroke:none"
       d="M 20 260 L 20 280 L 20 300 L 40 300 L 60 300 L 60 280 L 60 260 L 40 260 L 20 260 z "
       transform="matrix(0.8,0,0,-0.8,0,256)"
       id="path3052" /><path
       style="fill:#782121;fill-opacity:1;fill-rule:nonzero;stroke:none"
       d="M 60 260 L 60 280 L 60 300 L 80 300 L 100 300 L 100 280 L 100 260 L 80 260 L 60 260 z "
       transform="matrix(0.8,0,0,-0.8,0,256)"
       id="path3056" /><path
       style="fill:#501000;fill-opacity:1;fill-rule:nonzero;stroke:none"
       d="M 100 260 L 100 280 L 100 300 L 120 300 L 140 300 L 140 280 L 140 260 L 120 260 L 100 260 z "
       transform="matrix(0.8,0,0,-0.8,0,256)"
       id="path3060" /><path
       style="fill:#701000;fill-opacity:1;fill-rule:nonzero;stroke:none"
       d="M 140 260 L 140 280 L 140 300 L 160 300 L 180 300 L 180 280 L 180 260 L 160 260 L 140 260 z "
       transform="matrix(0.8,0,0,-0.8,0,256)"
       id="path3064" /><path
       style="fill:#16502d;fill-opacity:1;fill-rule:nonzero;stroke:none"
       d="M 180 260 L 180 280 L 180 300 L 200 300 L 220 300 L 220 280 L 220 260 L 200 260 L 180 260 z "
       transform="matrix(0.8,0,0,-0.8,0,256)"
       id="path3068" /><path
       style="fill:#782121;fill-opacity:1;fill-rule:nonzero;stroke:none"
       d="M 220 260 L 220 280 L 220 300 L 240 300 L 260 300 L 260 280 L 260 260 L 240 260 L 220 260 z "
       transform="matrix(0.8,0,0,-0.8,0,256)"
       id="path3072" /><path
       style="fill:#004455;fill-opacity:1;fill-rule:nonzero;stroke:none"
       d="M 260 260 L 260 280 L 260 300 L 280 300 L 300 300 L 300 280 L 300 260 L 280 260 L 260 260 z "
       transform="matrix(0.8,0,0,-0.8,0,256)"
       id="path3076" /><path
       style="fill:#782121;fill-opacity:1;fill-rule:nonzero;stroke:none"
       d="M 300 260 L 300 280 L 300 300 L 320 300 L 320 280 L 320 260 L 300 260 z "
       transform="matrix(0.8,0,0,-0.8,0,256)"
       id="path3080" /><path
       inkscape:connector-curvature="0"
       id="path3082"
       style="fill:#ff1000;fill-opacity:1;fill-rule:nonzero;stroke:none"
       d="m 256,16 0,0 0,16 0,0 0,-16 z" /><path
       inkscape:connector-curvature="0"
       id="path3116"
       style="fill:#ff2000;fill-opacity:1;fill-rule:nonzero;stroke:none"
       d="m 256,32 0,0 0,16 0,0 0,-16 z" /><path
       style="fill:#003000;fill-opacity:1;fill-rule:nonzero;stroke:none"
       d="M 0 220 L 0 240 L 0 260 L 20 260 L 20 240 L 20 220 L 0 220 z "
       transform="matrix(0.8,0,0,-0.8,0,256)"
       id="path3118" /><path
       style="fill:#164450;fill-opacity:1;fill-rule:nonzero;stroke:none"
       d="M 20 220 L 20 240 L 20 260 L 40 260 L 60 260 L 60 240 L 60 220 L 40 220 L 20 220 z "
       transform="matrix(0.8,0,0,-0.8,0,256)"
       id="path3120" /><path
       style="fill:#303000;fill-opacity:1;fill-rule:nonzero;stroke:none"
       d="M 60 220 L 60 240 L 60 260 L 80 260 L 100 260 L 100 240 L 100 220 L 80 220 L 60 220 z "
       transform="matrix(0.8,0,0,-0.8,0,256)"
       id="path3124" /><path
       style="fill:#503000;fill-opacity:1;fill-rule:nonzero;stroke:none"
       d="M 100 220 L 100 240 L 100 260 L 120 260 L 140 260 L 140 240 L 140 220 L 120 220 L 100 220 z "
       transform="matrix(0.8,0,0,-0.8,0,256)"
       id="path3128" /><path
       style="fill:#703000;fill-opacity:1;fill-rule:nonzero;stroke:none"
       d="M 140 220 L 140 240 L 140 260 L 160 260 L 180 260 L 180 240 L 180 220 L 160 220 L 140 220 z "
       transform="matrix(0.8,0,0,-0.8,0,256)"
       id="path3132" /><path
       style="fill:#8f3000;fill-opacity:1;fill-rule:nonzero;stroke:none"
       d="M 180 220 L 180 240 L 180 260 L 200 260 L 220 260 L 220 240 L 220 220 L 200 220 L 180 220 z "
       transform="matrix(0.8,0,0,-0.8,0,256)"
       id="path3136" /><path
       style="fill:#af3000;fill-opacity:1;fill-rule:nonzero;stroke:none"
       d="M 220 220 L 220 240 L 220 260 L 240 260 L 260 260 L 260 240 L 260 220 L 240 220 L 220 220 z "
       transform="matrix(0.8,0,0,-0.8,0,256)"
       id="path3140" /><path
       style="fill:#803300;fill-opacity:1;fill-rule:nonzero;stroke:none"
       d="M 260 220 L 260 240 L 260 260 L 280 260 L 300 260 L 300 240 L 300 220 L 280 220 L 260 220 z "
       transform="matrix(0.8,0,0,-0.8,0,256)"
       id="path3144" /><path
       style="fill:#808000;fill-opacity:1;fill-rule:nonzero;stroke:none"
       d="M 300 220 L 300 240 L 300 260 L 320 260 L 320 240 L 320 220 L 300 220 z "
       transform="matrix(0.8,0,0,-0.8,0,256)"
       id="path3148" /><path
       inkscape:connector-curvature="0"
       id="path3150"
       style="fill:#ff3000;fill-opacity:1;fill-rule:nonzero;stroke:none"
       d="m 256,48 0,0 0,16 0,0 0,-16 z" /><path
       inkscape:connector-curvature="0"
       id="path3184"
       style="fill:#ff4000;fill-opacity:1;fill-rule:nonzero;stroke:none"
       d="m 256,64 0,0 0,16 0,0 0,-16 z" /><path
       style="fill:#005000;fill-opacity:1;fill-rule:nonzero;stroke:none"
       d="M 0 180 L 0 200 L 0 220 L 20 220 L 20 200 L 20 180 L 0 180 z "
       transform="matrix(0.8,0,0,-0.8,0,256)"
       id="path3186" /><path
       style="fill:#105000;fill-opacity:1;fill-rule:nonzero;stroke:none"
       d="M 20 180 L 20 200 L 20 220 L 40 220 L 60 220 L 60 200 L 60 180 L 40 180 L 20 180 z "
       transform="matrix(0.8,0,0,-0.8,0,256)"
       id="path3188" /><path
       style="fill:#305000;fill-opacity:1;fill-rule:nonzero;stroke:none"
       d="M 60 180 L 60 200 L 60 220 L 80 220 L 100 220 L 100 200 L 100 180 L 80 180 L 60 180 z "
       transform="matrix(0.8,0,0,-0.8,0,256)"
       id="path3192" /><path
       style="fill:#505000;fill-opacity:1;fill-rule:nonzero;stroke:none"
       d="M 100 180 L 100 200 L 100 220 L 120 220 L 140 220 L 140 200 L 140 180 L 120 180 L 100 180 z "
       transform="matrix(0.8,0,0,-0.8,0,256)"
       id="path3196" /><path
       style="fill:#803300;fill-opacity:1;fill-rule:nonzero;stroke:none"
       d="M 140 180 L 140 200 L 140 220 L 160 220 L 180 220 L 180 200 L 180 180 L 160 180 L 140 180 z "
       transform="matrix(0.8,0,0,-0.8,0,256)"
       id="path3200" /><path
       style="fill:#8f5000;fill-opacity:1;fill-rule:nonzero;stroke:none"
       d="M 180 180 L 180 200 L 180 220 L 200 220 L 220 220 L 220 200 L 220 180 L 200 180 L 180 180 z "
       transform="matrix(0.8,0,0,-0.8,0,256)"
       id="path3204" /><path
       style="fill:#af5000;fill-opacity:1;fill-rule:nonzero;stroke:none"
       d="M 220 180 L 220 200 L 220 220 L 240 220 L 260 220 L 260 200 L 260 180 L 240 180 L 220 180 z "
       transform="matrix(0.8,0,0,-0.8,0,256)"
       id="path3208" /><path
       style="fill:#536c67;fill-opacity:1;fill-rule:nonzero;stroke:none"
       d="M 260 180 L 260 200 L 260 220 L 280 220 L 300 220 L 300 200 L 300 180 L 280 180 L 260 180 z "
       transform="matrix(0.8,0,0,-0.8,0,256)"
       id="path3212" /><path
       style="fill:#784421;fill-opacity:1;fill-rule:nonzero;stroke:none"
       d="M 300 180 L 300 200 L 300 220 L 320 220 L 320 200 L 320 180 L 300 180 z "
       transform="matrix(0.8,0,0,-0.8,0,256)"
       id="path3216" /><path
       inkscape:connector-curvature="0"
       id="path3218"
       style="fill:#ff5000;fill-opacity:1;fill-rule:nonzero;stroke:none"
       d="m 256,80 0,0 0,16 0,0 0,-16 z" /><path
       inkscape:connector-curvature="0"
       id="path3252"
       style="fill:#ff6000;fill-opacity:1;fill-rule:nonzero;stroke:none"
       d="m 256,96 0,0 0,16 0,0 0,-16 z" /><path
       style="fill:#007000;fill-opacity:1;fill-rule:nonzero;stroke:none"
       d="M 0 140 L 0 160 L 0 180 L 20 180 L 20 160 L 20 140 L 0 140 z "
       transform="matrix(0.8,0,0,-0.8,0,256)"
       id="path3254" /><path
       style="fill:#554400;fill-opacity:1;fill-rule:nonzero;stroke:none"
       d="M 20 140 L 20 160 L 20 180 L 40 180 L 60 180 L 60 160 L 60 140 L 40 140 L 20 140 z "
       transform="matrix(0.8,0,0,-0.8,0,256)"
       id="path3256" /><path
       style="fill:#307000;fill-opacity:1;fill-rule:nonzero;stroke:none"
       d="M 60 140 L 60 160 L 60 180 L 80 180 L 100 180 L 100 160 L 100 140 L 80 140 L 60 140 z "
       transform="matrix(0.8,0,0,-0.8,0,256)"
       id="path3260" /><path
       style="fill:#507000;fill-opacity:1;fill-rule:nonzero;stroke:none"
       d="M 100 140 L 100 160 L 100 180 L 120 180 L 140 180 L 140 160 L 140 140 L 120 140 L 100 140 z "
       transform="matrix(0.8,0,0,-0.8,0,256)"
       id="path3264" /><path
       style="fill:#707000;fill-opacity:1;fill-rule:nonzero;stroke:none"
       d="M 140 140 L 140 160 L 140 180 L 160 180 L 180 180 L 180 160 L 180 140 L 160 140 L 140 140 z "
       transform="matrix(0.8,0,0,-0.8,0,256)"
       id="path3268" /><path
       style="fill:#8f7000;fill-opacity:1;fill-rule:nonzero;stroke:none"
       d="M 180 140 L 180 160 L 180 180 L 200 180 L 220 180 L 220 160 L 220 140 L 200 140 L 180 140 z "
       transform="matrix(0.8,0,0,-0.8,0,256)"
       id="path3272" /><path
       style="fill:#af7000;fill-opacity:1;fill-rule:nonzero;stroke:none"
       d="M 220 140 L 220 160 L 220 180 L 240 180 L 260 180 L 260 160 L 260 140 L 240 140 L 220 140 z "
       transform="matrix(0.8,0,0,-0.8,0,256)"
       id="path3276" /><path
       style="fill:#502d16;fill-opacity:1;fill-rule:nonzero;stroke:none"
       d="M 260 140 L 260 160 L 260 180 L 280 180 L 300 180 L 300 160 L 300 140 L 280 140 L 260 140 z "
       transform="matrix(0.8,0,0,-0.8,0,256)"
       id="path3280" /><path
       style="fill:#225500;fill-opacity:1;fill-rule:nonzero;stroke:none"
       d="M 300 140 L 300 160 L 300 180 L 320 180 L 320 160 L 320 140 L 300 140 z "
       transform="matrix(0.8,0,0,-0.8,0,256)"
       id="path3284" /><path
       inkscape:connector-curvature="0"
       id="path3286"
       style="fill:#ff7000;fill-opacity:1;fill-rule:nonzero;stroke:none"
       d="m 256,112 0,0 0,16 0,0 0,-16 z" /><path
       inkscape:connector-curvature="0"
       id="path3320"
       style="fill:#ff8000;fill-opacity:1;fill-rule:nonzero;stroke:none"
       d="m 256,128 0,0 0,16 0,0 0,-16 z" /><path
       style="fill:#782144;fill-opacity:1;fill-rule:nonzero;stroke:none"
       d="M 0 100 L 0 120 L 0 140 L 20 140 L 20 120 L 20 100 L 0 100 z "
       transform="matrix(0.8,0,0,-0.8,0,256)"
       id="path3322" /><path
       style="fill:#004455;fill-opacity:1;fill-rule:nonzero;stroke:none"
       d="M 20 100 L 20 120 L 20 140 L 40 140 L 60 140 L 60 120 L 60 100 L 40 100 L 20 100 z "
       transform="matrix(0.8,0,0,-0.8,0,256)"
       id="path3324" /><path
       style="fill:#308f00;fill-opacity:1;fill-rule:nonzero;stroke:none"
       d="M 60 100 L 60 120 L 60 140 L 80 140 L 100 140 L 100 120 L 100 100 L 80 100 L 60 100 z "
       transform="matrix(0.8,0,0,-0.8,0,256)"
       id="path3328" /><path
       style="fill:#803300;fill-opacity:1;fill-rule:nonzero;stroke:none"
       d="M 100 100 L 100 120 L 100 140 L 120 140 L 140 140 L 140 120 L 140 100 L 120 100 L 100 100 z "
       transform="matrix(0.8,0,0,-0.8,0,256)"
       id="path3332" /><path
       style="fill:#708f00;fill-opacity:1;fill-rule:nonzero;stroke:none"
       d="M 140 100 L 140 120 L 140 140 L 160 140 L 180 140 L 180 120 L 180 100 L 160 100 L 140 100 z "
       transform="matrix(0.8,0,0,-0.8,0,256)"
       id="path3336" /><path
       style="fill:#8f8f00;fill-opacity:1;fill-rule:nonzero;stroke:none"
       d="M 180 100 L 180 120 L 180 140 L 200 140 L 220 140 L 220 120 L 220 100 L 200 100 L 180 100 z "
       transform="matrix(0.8,0,0,-0.8,0,256)"
       id="path3340" /><path
       style="fill:#af8f00;fill-opacity:1;fill-rule:nonzero;stroke:none"
       d="M 220 100 L 220 120 L 220 140 L 240 140 L 260 140 L 260 120 L 260 100 L 240 100 L 220 100 z "
       transform="matrix(0.8,0,0,-0.8,0,256)"
       id="path3344" /><path
       style="fill:#cf8f00;fill-opacity:1;fill-rule:nonzero;stroke:none"
       d="M 260 100 L 260 120 L 260 140 L 280 140 L 300 140 L 300 120 L 300 100 L 280 100 L 260 100 z "
       transform="matrix(0.8,0,0,-0.8,0,256)"
       id="path3348" /><path
       style="fill:#782167;fill-opacity:1;fill-rule:nonzero;stroke:none"
       d="M 300 100 L 300 120 L 300 140 L 320 140 L 320 120 L 320 100 L 300 100 z "
       transform="matrix(0.8,0,0,-0.8,0,256)"
       id="path3352" /><path
       inkscape:connector-curvature="0"
       id="path3354"
       style="fill:#ff8f00;fill-opacity:1;fill-rule:nonzero;stroke:none"
       d="m 256,144 0,0 0,16 0,0 0,-16 z" /><path
       inkscape:connector-curvature="0"
       id="path3388"
       style="fill:#ff9f00;fill-opacity:1;fill-rule:nonzero;stroke:none"
       d="m 256,160 0,0 0,16 0,0 0,-16 z" /><path
       style="fill:#504416;fill-opacity:1;fill-rule:nonzero;stroke:none"
       d="M 0 60 L 0 80 L 0 100 L 20 100 L 20 80 L 20 60 L 0 60 z "
       transform="matrix(0.8,0,0,-0.8,0,256)"
       id="path3390" /><path
       style="fill:#165016;fill-opacity:1;fill-rule:nonzero;stroke:none"
       d="M 20 60 L 20 80 L 20 100 L 40 100 L 60 100 L 60 80 L 60 60 L 40 60 L 20 60 z "
       transform="matrix(0.8,0,0,-0.8,0,256)"
       id="path3392" /><path
       style="fill:#502d16;fill-opacity:1;fill-rule:nonzero;stroke:none"
       d="M 60 60 L 60 80 L 60 100 L 80 100 L 100 100 L 100 80 L 100 60 L 80 60 L 60 60 z "
       transform="matrix(0.8,0,0,-0.8,0,256)"
       id="path3396" /><path
       style="fill:#668000;fill-opacity:1;fill-rule:nonzero;stroke:none"
       d="M 100 60 L 100 80 L 100 100 L 120 100 L 140 100 L 140 80 L 140 60 L 120 60 L 100 60 z "
       transform="matrix(0.8,0,0,-0.8,0,256)"
       id="path3400" /><path
       style="fill:#806600;fill-opacity:1;fill-rule:nonzero;stroke:none"
       d="M 140 60 L 140 80 L 140 100 L 160 100 L 180 100 L 180 80 L 180 60 L 160 60 L 140 60 z "
       transform="matrix(0.8,0,0,-0.8,0,256)"
       id="path3404" /><path
       style="fill:#008033;fill-opacity:1;fill-rule:nonzero;stroke:none"
       d="M 180 60 L 180 80 L 180 100 L 200 100 L 220 100 L 220 80 L 220 60 L 200 60 L 180 60 z "
       transform="matrix(0.8,0,0,-0.8,0,256)"
       id="path3408" /><path
       style="fill:#784421;fill-opacity:1;fill-rule:nonzero;stroke:none"
       d="M 220 60 L 220 80 L 220 100 L 240 100 L 260 100 L 260 80 L 260 60 L 240 60 L 220 60 z "
       transform="matrix(0.8,0,0,-0.8,0,256)"
       id="path3412" /><path
       style="fill:#a0892c;fill-opacity:1;fill-rule:nonzero;stroke:none"
       d="M 260 60 L 260 80 L 260 100 L 280 100 L 300 100 L 300 80 L 300 60 L 280 60 L 260 60 z "
       transform="matrix(0.8,0,0,-0.8,0,256)"
       id="path3416" /><path
       style="fill:#806600;fill-opacity:1;fill-rule:nonzero;stroke:none"
       d="M 300 60 L 300 80 L 300 100 L 320 100 L 320 80 L 320 60 L 300 60 z "
       transform="matrix(0.8,0,0,-0.8,0,256)"
       id="path3420" /><path
       inkscape:connector-curvature="0"
       id="path3422"
       style="fill:#ffaf00;fill-opacity:1;fill-rule:nonzero;stroke:none"
       d="m 256,176 0,0 0,16 0,0 0,-16 z" /><path
       inkscape:connector-curvature="0"
       id="path3456"
       style="fill:#ffbf00;fill-opacity:1;fill-rule:nonzero;stroke:none"
       d="m 256,192 0,0 0,16 0,0 0,-16 z" /><path
       style="fill:#484537;fill-opacity:1;fill-rule:nonzero;stroke:none"
       d="M 0 20 L 0 40 L 0 60 L 20 60 L 20 40 L 20 20 L 0 20 z "
       transform="matrix(0.8,0,0,-0.8,0,256)"
       id="path3458" /><path
       style="fill:#338000;fill-opacity:1;fill-rule:nonzero;stroke:none"
       d="M 20 20 L 20 40 L 20 60 L 40 60 L 60 60 L 60 40 L 60 20 L 40 20 L 20 20 z "
       transform="matrix(0.8,0,0,-0.8,0,256)"
       id="path3460" /><path
       style="fill:#668000;fill-opacity:1;fill-rule:nonzero;stroke:none"
       d="M 60 20 L 60 40 L 60 60 L 80 60 L 100 60 L 100 40 L 100 20 L 80 20 L 60 20 z "
       transform="matrix(0.8,0,0,-0.8,0,256)"
       id="path3464" /><path
       style="fill:#aa4400;fill-opacity:1;fill-rule:nonzero;stroke:none"
       d="M 100 20 L 100 40 L 100 60 L 120 60 L 140 60 L 140 40 L 140 20 L 120 20 L 100 20 z "
       transform="matrix(0.8,0,0,-0.8,0,256)"
       id="path3468" /><path
       style="fill:#008033;fill-opacity:1;fill-rule:nonzero;stroke:none"
       d="M 140 20 L 140 40 L 140 60 L 160 60 L 180 60 L 180 40 L 180 20 L 160 20 L 140 20 z "
       transform="matrix(0.8,0,0,-0.8,0,256)"
       id="path3472" /><path
       style="fill:#6f7c91;fill-opacity:1;fill-rule:nonzero;stroke:none"
       d="M 180 20 L 180 40 L 180 60 L 200 60 L 220 60 L 220 40 L 220 20 L 200 20 L 180 20 z "
       transform="matrix(0.8,0,0,-0.8,0,256)"
       id="path3476" /><path
       style="fill:#aa4400;fill-opacity:1;fill-rule:nonzero;stroke:none"
       d="M 220 20 L 220 40 L 220 60 L 240 60 L 260 60 L 260 40 L 260 20 L 240 20 L 220 20 z "
       transform="matrix(0.8,0,0,-0.8,0,256)"
       id="path3480" /><path
       style="fill:#786721;fill-opacity:1;fill-rule:nonzero;stroke:none"
       d="M 260 20 L 260 40 L 260 60 L 280 60 L 300 60 L 300 40 L 300 20 L 280 20 L 260 20 z "
       transform="matrix(0.8,0,0,-0.8,0,256)"
       id="path3484" /><path
       style="fill:#a02c2c;fill-opacity:1;fill-rule:nonzero;stroke:none"
       d="M 300 20 L 300 40 L 300 60 L 320 60 L 320 40 L 320 20 L 300 20 z "
       transform="matrix(0.8,0,0,-0.8,0,256)"
       id="path3488" /><path
       inkscape:connector-curvature="0"
       id="path3490"
       style="fill:#ffcf00;fill-opacity:1;fill-rule:nonzero;stroke:none"
       d="m 256,208 0,0 0,16 0,0 0,-16 z" /><path
       inkscape:connector-curvature="0"
       id="path3524"
       style="fill:#ffdf00;fill-opacity:1;fill-rule:nonzero;stroke:none"
       d="m 256,224 0,0 0,16 0,0 0,-16 z" /><path
       inkscape:connector-curvature="0"
       id="path3526"
       style="fill:#550000;fill-opacity:1;fill-rule:nonzero;stroke:none"
       d="m 0,240 16,0 0,16 -16,0 0,-16 z" /><path
       style="fill:#483737;fill-opacity:1;fill-rule:nonzero;stroke:none"
       d="M 20 0 L 20 20 L 40 20 L 60 20 L 60 0 L 40 0 L 20 0 z "
       transform="matrix(0.8,0,0,-0.8,0,256)"
       id="path3528" /><path
       style="fill:#800000;fill-opacity:1;fill-rule:nonzero;stroke:none"
       d="M 60 0 L 60 20 L 80 20 L 100 20 L 100 0 L 80 0 L 60 0 z "
       transform="matrix(0.8,0,0,-0.8,0,256)"
       id="path3532" /><path
       style="fill:#161650;fill-opacity:1;fill-rule:nonzero;stroke:none"
       d="M 100 0 L 100 20 L 120 20 L 140 20 L 140 0 L 120 0 L 100 0 z "
       transform="matrix(0.8,0,0,-0.8,0,256)"
       id="path3536" /><path
       style="fill:#445500;fill-opacity:1;fill-rule:nonzero;stroke:none"
       d="M 140 0 L 140 20 L 160 20 L 180 20 L 180 0 L 160 0 L 140 0 z "
       transform="matrix(0.8,0,0,-0.8,0,256)"
       id="path3540" /><path
       style="fill:#445016;fill-opacity:1;fill-rule:nonzero;stroke:none"
       d="M 180 0 L 180 20 L 200 20 L 220 20 L 220 0 L 200 0 L 180 0 z "
       transform="matrix(0.8,0,0,-0.8,0,256)"
       id="path3544" /><path
       style="fill:#806600;fill-opacity:1;fill-rule:nonzero;stroke:none"
       d="M 220 0 L 220 20 L 240 20 L 260 20 L 260 0 L 240 0 L 220 0 z "
       transform="matrix(0.8,0,0,-0.8,0,256)"
       id="path3548" /><path
       style="fill:#89a02c;fill-opacity:1;fill-rule:nonzero;stroke:none"
       d="M 260 0 L 260 20 L 280 20 L 300 20 L 300 0 L 280 0 L 260 0 z "
       transform="matrix(0.8,0,0,-0.8,0,256)"
       id="path3552" /><path
       inkscape:connector-curvature="0"
       id="path3556"
       style="fill:#280b0b;fill-opacity:1;fill-rule:nonzero;stroke:none"
       d="m 240,240 16,0 0,16 -16,0 0,-16 z" /><path
       inkscape:connector-curvature="0"
       id="path3558"
       style="fill:#ffef00;fill-opacity:1;fill-rule:nonzero;stroke:none"
       d="m 256,240 0,0 0,16 0,0 0,-16 z" /><path
       inkscape:connector-curvature="0"
       id="path3560"
       style="fill:#00ff00;fill-opacity:1;fill-rule:nonzero;stroke:none"
       d="m 0,256 16,0 0,0 -16,0 z" /><path
       inkscape:connector-curvature="0"
       id="path3562"
       style="fill:#10ff00;fill-opacity:1;fill-rule:nonzero;stroke:none"
       d="m 16,256 16,0 0,0 -16,0 z" /><path
       inkscape:connector-curvature="0"
       id="path3564"
       style="fill:#20ff00;fill-opacity:1;fill-rule:nonzero;stroke:none"
       d="m 32,256 16,0 0,0 -16,0 z" /><path
       inkscape:connector-curvature="0"
       id="path3566"
       style="fill:#30ff00;fill-opacity:1;fill-rule:nonzero;stroke:none"
       d="m 48,256 16,0 0,0 -16,0 z" /><path
       inkscape:connector-curvature="0"
       id="path3568"
       style="fill:#40ff00;fill-opacity:1;fill-rule:nonzero;stroke:none"
       d="m 64,256 16,0 0,0 -16,0 z" /><path
       inkscape:connector-curvature="0"
       id="path3570"
       style="fill:#50ff00;fill-opacity:1;fill-rule:nonzero;stroke:none"
       d="m 80,256 16,0 0,0 -16,0 z" /><path
       inkscape:connector-curvature="0"
       id="path3572"
       style="fill:#60ff00;fill-opacity:1;fill-rule:nonzero;stroke:none"
       d="m 96,256 16,0 0,0 -16,0 z" /><path
       inkscape:connector-curvature="0"
       id="path3574"
       style="fill:#70ff00;fill-opacity:1;fill-rule:nonzero;stroke:none"
       d="m 112,256 16,0 0,0 -16,0 z" /><path
       inkscape:connector-curvature="0"
       id="path3576"
       style="fill:#80ff00;fill-opacity:1;fill-rule:nonzero;stroke:none"
       d="m 128,256 16,0 0,0 -16,0 z" /><path
       inkscape:connector-curvature="0"
       id="path3578"
       style="fill:#8fff00;fill-opacity:1;fill-rule:nonzero;stroke:none"
       d="m 144,256 16,0 0,0 -16,0 z" /><path
       inkscape:connector-curvature="0"
       id="path3580"
       style="fill:#9fff00;fill-opacity:1;fill-rule:nonzero;stroke:none"
       d="m 160,256 16,0 0,0 -16,0 z" /><path
       inkscape:connector-curvature="0"
       id="path3582"
       style="fill:#afff00;fill-opacity:1;fill-rule:nonzero;stroke:none"
       d="m 176,256 16,0 0,0 -16,0 z" /><path
       inkscape:connector-curvature="0"
       id="path3584"
       style="fill:#bfff00;fill-opacity:1;fill-rule:nonzero;stroke:none"
       d="m 192,256 16,0 0,0 -16,0 z" /><path
       inkscape:connector-curvature="0"
       id="path3586"
       style="fill:#cfff00;fill-opacity:1;fill-rule:nonzero;stroke:none"
       d="m 208,256 16,0 0,0 -16,0 z" /><path
       inkscape:connector-curvature="0"
       id="path3588"
       style="fill:#dfff00;fill-opacity:1;fill-rule:nonzero;stroke:none"
       d="m 224,256 16,0 0,0 -16,0 z" /><path
       inkscape:connector-curvature="0"
       id="path3590"
       style="fill:#efff00;fill-opacity:1;fill-rule:nonzero;stroke:none"
       d="m 240,256 16,0 0,0 -16,0 z" /><path
       inkscape:connector-curvature="0"
       id="path3592"
       style="fill:#ffff00;fill-opacity:1;fill-rule:nonzero;stroke:none"
       d="m 256,256 0,0 0,0 0,0 z" /><g
       transform="scale(0.90694018,-1.1026086)"
       style="font-size:113.55400085px;font-style:normal;font-variant:normal;font-weight:900;font-stretch:normal;text-align:start;line-height:125%;letter-spacing:0px;word-spacing:0px;writing-mode:lr-tb;text-anchor:start;fill:#ffffff;fill-opacity:1;stroke:none;font-family:Frutiger;-inkscape-font-specification:Frutiger Heavy"
       id="text3979"><path
         d="m 18.037517,-135.17236 33.384876,0 c 14.194236,0 30.886688,-3.97441 30.886688,-22.93791 0,-9.65208 -5.450603,-15.32979 -16.011114,-17.48732 l 0,-0.22711 c 8.857203,-2.9524 13.967142,-8.51656 13.967142,-18.5093 0,-13.62646 -11.014753,-20.09906 -25.776758,-20.09906 l -36.450834,0 0,79.2607 m 21.121044,-33.61199 6.472578,0 c 7.267449,0 15.556898,0.79489 15.556898,9.42498 0,8.06233 -8.062342,9.19788 -15.784006,9.19788 l -6.24547,0 0,-18.62286 m 0,-30.65958 6.131916,0 c 7.040341,0 13.853588,0.68133 13.853588,7.94878 0,6.69968 -7.153909,8.403 -14.080696,8.403 l -5.904808,0 0,-16.35178"
         style=""
         id="path3988" /><path
         d="m 93.888041,-135.17236 20.666829,0 -0.45422,-60.86495 0.22711,0 19.30418,60.86495 19.41774,0 20.21261,-60.86495 0.22711,0 -0.34067,60.86495 20.66683,0 0,-79.2607 -32.02223,0 -17.60087,52.68906 -0.2271,0 -16.806,-52.68906 -33.271319,0 0,79.2607"
         style=""
         id="path3990" /><path
         d="m 205.39807,-135.17236 57.34477,0 0,-14.98913 -31.3409,0 5.6777,-4.88282 c 7.49455,-6.47258 24.187,-22.0295 24.187,-37.47282 0,-15.78399 -12.71807,-23.27857 -30.43247,-23.27857 -4.65571,0 -12.15029,0.56777 -23.50568,4.65571 l 0.79488,16.46533 c 4.88281,-2.83885 13.96715,-5.45059 20.78038,-5.45059 6.35902,0 11.24184,2.95241 11.24184,9.99275 0,10.67407 -18.62287,25.89033 -34.74752,39.85745 l 0,15.10269"
         style=""
         id="path3992" /></g><g
       transform="scale(0.90694016,-1.1026086)"
       style="font-size:144.79751587px;font-style:normal;font-variant:normal;font-weight:900;font-stretch:normal;text-align:start;line-height:125%;letter-spacing:0px;word-spacing:0px;writing-mode:lr-tb;text-anchor:start;fill:#ffffff;fill-opacity:1;stroke:none;font-family:Frutiger;-inkscape-font-specification:Frutiger Heavy"
       id="text3983"><path
         d="m 17.609618,-14.892303 72.833151,0 0,-19.113273 -45.900813,0 0,-22.878007 41.846482,0 0,-19.113272 -41.846482,0 0,-20.850842 44.30804,0 0,-19.113273 -71.240378,0 0,101.068667"
         style=""
         id="path3995" /><path
         d="m 105.40442,-14.892303 26.93234,0 0,-35.330594 10.42542,0 c 25.19474,0 40.10891,-12.163012 40.10891,-32.579441 0,-22.733192 -14.47978,-33.158632 -45.32162,-33.158632 l -32.14505,0 0,101.068667 m 26.93234,-81.955394 6.95028,0 c 9.26703,0 16.65171,3.330353 16.65171,13.610966 0,10.570208 -7.38468,13.900562 -16.65171,13.900562 l -6.95028,0 0,-27.511528"
         style=""
         id="path3997" /><path
         d="m 193.34402,-17.498659 c 8.97744,2.895948 20.70606,4.343926 30.11789,4.343926 22.44359,0 44.45283,-7.095105 44.45283,-33.303429 0,-36.488937 -47.78318,-25.484379 -47.78318,-41.846482 0,-8.83264 11.29422,-9.411839 18.09969,-9.411839 7.67426,0 15.49334,1.447979 22.44362,4.633521 l 1.73757,-20.850838 c -6.80548,-2.31676 -16.36213,-3.76474 -26.06355,-3.76474 -20.27164,0 -44.01845,6.66071 -44.01845,30.986669 0,36.778532 47.78318,24.905191 47.78318,43.728849 0,8.108653 -8.10867,9.846232 -16.65171,9.846232 -11.1494,0 -20.85085,-2.895955 -27.80113,-6.660686 l -2.31676,22.298817"
         style=""
         id="path3999" /></g></g></svg>